<?xml version="1.0" encoding="utf-8"?>
<!-- Generator: Adobe Illustrator 25.1.0, SVG Export Plug-In . SVG Version: 6.00 Build 0)  -->
<svg version="1.1" xmlns="http://www.w3.org/2000/svg" xmlns:xlink="http://www.w3.org/1999/xlink" x="0px" y="0px"
	 viewBox="0 0 841.9 595.3" style="enable-background:new 0 0 841.9 595.3;" xml:space="preserve">
<style type="text/css">
	.st0{display:none;}
	.st1{fill:#A6815E;}
	.st2{fill:#BB9770;}
	.st3{opacity:0.3529;fill:#BB9770;}
	.st4{fill:#FFEACE;}
	.st5{opacity:0.251;}
</style>
<g id="Marges" class="st0">
</g>
<g id="Bières_artisanales">
	<g>
		<path class="st1" d="M188.8,479.4c1.9,1,4.2,2.3,6.9,3.9c5,2.9,6.7,6.6,4.3,10.9c-1.5,2.6-4.1,3.3-7,3c2.2,2.6,2.8,5.8,1,8.9
			c-2.7,4.6-7.6,6-11.2,4c-1.2-0.7-2.4-1.5-4.1-2.6c-1.3-0.8-2.8-1.6-4.6-2.6C177,500,185,486.1,188.8,479.4z M190.1,504
			c1.5-2.6,0.9-4.6-2.1-6.4c-1.2-0.7-2.5-1.4-3.5-2c-1.7,2.9-3.2,5.6-4.5,7.9c1.7,1.4,2.1,1.6,3.5,2.4
			C186.1,507.5,188.6,506.6,190.1,504z M190.8,484.9c-1.5,2.5-3.1,5.1-4.6,7.7c1.3,0.7,2.9,1.5,3.8,2c3,1.8,5-0.2,5.9-1.6
			c1.5-2.6,1.2-4.5-1.7-6.2C192.7,486,192,485.6,190.8,484.9z"/>
		<path class="st1" d="M203.7,521c2.2-4.4,4.3-8.8,6.5-13.2c2.1-4.4,4.3-8.8,6.4-13.2l4,1.9c-2.2,4.4-4.4,8.8-6.5,13.2
			c-2.1,4.4-4.2,8.8-6.3,13.3L203.7,521z"/>
		<path class="st1" d="M233.7,502.6l15.5,6.3l-1.6,3.9c-4.4-2-7.7-3.5-11.4-4.9c-1.1,2.7-2.2,5.4-3.3,8.1l8.4,3.4l-1.6,4
			c-3.9-1.8-6.5-3-8.2-3.8c-1.1,2.8-2.2,5.5-3.3,8.3c3.9,1.5,7.7,3,12.1,4.4l-1.6,4l-16-6.5C226.4,520.8,230.1,511.7,233.7,502.6z
			 M239,495.3l2.9-2.3c1.7,3.3,4.9,6.6,7.4,9l-1.6,1.9C244.6,501.9,240.3,497.9,239,495.3z"/>
		<path class="st1" d="M263.4,531.1c-0.8-0.3-2-0.7-2.9-1.1c-1.4,4.2-2.6,8.4-4,12.6l-4.2-1.4c1.5-4.7,3-9.3,4.5-14
			c1.5-4.7,3-9.4,4.5-14c2.2,0.6,5.6,1.6,8,2.4c5.5,1.8,7.6,5.6,5.9,10.8c-1.2,3.6-4,5.6-7.7,5.5c0.7,2.5,1.7,9.3,3.4,14.4l-0.3,0.8
			l-4.7-1.5C265.4,542.6,264.7,537.3,263.4,531.1z M271.2,524.8c0.9-2.8-0.5-4.6-3.3-5.5c-1.6-0.5-2.7-0.8-3.7-1.1
			c-0.8,2.6-1.7,5.3-2.6,7.9c1,0.5,2.3,1,4,1.6C268.2,528.6,270.3,527.7,271.2,524.8z"/>
		<path class="st1" d="M291.7,522.5l16.3,4l-1,4.1c-4.7-1.4-8.1-2.4-11.9-3.2c-0.7,2.8-1.4,5.6-2.1,8.5l8.8,2.2l-1,4.2
			c-4.1-1.2-6.8-2.1-8.7-2.5c-0.7,2.9-1.4,5.8-2.1,8.7c4.1,1,8,1.9,12.6,2.6l-1,4.2l-16.8-4.1C287.1,541.5,289.5,532,291.7,522.5z"
			/>
		<path class="st1" d="M317.9,550.5c1.2,3,2.8,5,5.7,5.5c3.1,0.6,4.6-1,5-3.3c0.5-2.7-1.7-4.3-4.3-6.1c-3.3-2.4-7.2-4.9-6.1-10.6
			c0.9-4.9,4.5-7.3,9.9-6.3c3.9,0.7,6.5,3.3,7.6,6.6l-3.8,1.9c-0.9-2.3-1.8-3.9-4.6-4.4c-3.1-0.6-4.7,0.7-5.1,2.8
			c-0.5,2.8,1.6,4.5,4.1,6.3c3.4,2.4,7.4,5,6.4,10.5c-0.9,4.8-4.2,7.6-10.2,6.5c-4.3-0.8-7.2-3.7-8.7-7.4L317.9,550.5z"/>
		<path class="st1" d="M379,537.1c1.8,10.5,3.4,20.3,5.4,30l-4.9-0.4c-0.4-2.6-0.7-5.2-1.1-7.6c-1.1-0.2-2.9-0.5-4.8-0.6
			c-1.4-0.1-2.9-0.2-4-0.2c-0.9,2.6-1.7,5.1-2.4,7.3l-4.9-0.4c3.7-9.2,8-20.6,10.8-28.6L379,537.1z M377.8,554.8
			c-0.7-4.4-1.4-8.8-2.2-13.5c-1.6,4.5-3.2,8.9-4.6,12.9c1.1,0.1,2.2,0.3,3.2,0.4C375.4,554.7,376.6,554.7,377.8,554.8z"/>
		<path class="st1" d="M405.3,554.8c-0.9,0-2.1-0.1-3.1-0.2c-0.1,4.4-0.2,8.8-0.3,13.2l-4.4-0.1c0.2-4.9,0.3-9.8,0.4-14.7
			c0.1-4.9,0.3-9.8,0.3-14.7c2.3,0,5.9,0,8.3,0c5.8,0.2,8.9,3.3,8.7,8.7c-0.1,3.8-2.2,6.5-5.8,7.5c1.4,2.2,4.3,8.4,7.4,12.9l0,0.8
			l-5-0.1C410.5,565.3,408.3,560.4,405.3,554.8z M411.1,546.6c0.1-3-1.7-4.3-4.7-4.4c-1.6,0-2.9,0-3.8,0c-0.1,2.8-0.2,5.5-0.3,8.3
			c1.1,0.2,2.5,0.4,4.3,0.4C409.2,551.1,411,549.6,411.1,546.6z"/>
		<path class="st1" d="M438.3,567.8l-4.4,0.1c-0.1-4.9-0.2-9.8-0.3-14.7c-0.1-3.6-0.2-7.2-0.3-10.8c-2.1,0.1-4.1,0.2-6.7,0.4
			l-0.1-4.2l17.9-0.5l0.1,4.2c-2.7-0.1-4.7-0.1-6.9-0.1c0.1,3.6,0.1,7.2,0.2,10.8C437.9,558.1,438.1,562.9,438.3,567.8z"/>
		<path class="st1" d="M458.4,566.9c-0.3-4.9-0.6-9.8-1-14.7c-0.3-4.9-0.7-9.8-1.1-14.7l4.4-0.3c0.3,4.9,0.6,9.8,0.9,14.7
			s0.7,9.8,1.1,14.7L458.4,566.9z"/>
		<path class="st1" d="M479.1,557.2c2,2.5,4.1,4,7.1,3.6c3.1-0.4,4.1-2.3,3.9-4.6c-0.3-2.7-2.9-3.6-5.9-4.6c-3.9-1.3-8.3-2.6-9-8.3
			c-0.6-4.9,2.2-8.2,7.6-8.9c4-0.5,7.2,1.2,9.2,4l-3,2.9c-1.5-2-2.9-3.2-5.7-2.9c-3.1,0.4-4.3,2.1-4,4.2c0.3,2.8,2.9,3.8,5.8,4.8
			c3.9,1.4,8.5,2.6,9.2,8.2c0.6,4.8-1.8,8.5-7.8,9.2c-4.3,0.5-8-1.4-10.5-4.5L479.1,557.2z"/>
		<path class="st1" d="M514.8,530.3c4.4,9.7,8.5,18.7,12.9,27.6l-4.8,0.8c-1-2.5-2-4.8-3-7.1c-1.1,0.1-2.9,0.3-4.8,0.6
			c-1.4,0.2-2.8,0.6-3.9,0.9c-0.2,2.8-0.3,5.3-0.4,7.7l-4.8,0.9c1.2-9.9,2.5-21.9,3.1-30.4L514.8,530.3z M518.1,547.8
			c-1.8-4.1-3.6-8.1-5.6-12.5c-0.4,4.8-0.8,9.4-1.1,13.7c1.1-0.1,2.2-0.3,3.2-0.5C515.8,548.3,517,548,518.1,547.8z"/>
		<path class="st1" d="M540.5,555.2c-1.3-5.5-5.3-21.7-7-28.6l5.7-1.4c4.7,6,10,12.3,14.8,18c-1.7-6.4-4.1-15-5.6-20.3l4.3-1.1
			c1.7,7.4,5.3,22.3,6.8,28.6l-4.2,1c-5-6-11.3-13.9-16.7-20.1c1.7,6.5,4.2,15.8,6.2,22.7L540.5,555.2z"/>
		<path class="st1" d="M576.9,514.4c5.7,9,11,17.3,16.6,25.5l-4.6,1.5c-1.4-2.3-2.7-4.5-4-6.6c-1.1,0.3-2.9,0.7-4.6,1.3
			c-1.4,0.4-2.7,1-3.7,1.4c0.2,2.8,0.4,5.3,0.7,7.7l-4.7,1.5c-0.1-9.9-0.6-22.1-1.2-30.5L576.9,514.4z M582.7,531.2
			c-2.4-3.8-4.7-7.5-7.3-11.6c0.2,4.8,0.5,9.4,0.8,13.7c1.1-0.3,2.1-0.6,3.1-0.9C580.4,532.1,581.6,531.6,582.7,531.2z"/>
		<path class="st1" d="M595,507.9l4.1-1.6c3.1,7.9,6.2,15.8,9.5,23.7c2.7-1.1,5.3-2.3,8.2-3.7l1.6,4l-12.4,5
			C602.4,526.1,598.7,517,595,507.9z"/>
		<path class="st1" d="M618.1,498.2l15-7.4l1.9,3.8c-4.5,2-7.7,3.4-11.2,5.3c1.2,2.6,2.5,5.2,3.8,7.9l8.1-4l1.9,3.8
			c-3.9,1.7-6.6,2.8-8.3,3.6c1.3,2.7,2.6,5.4,4,8c3.8-1.9,7.3-3.7,11.3-6.1l1.9,3.8l-15.5,7.6C626.8,515.7,622.5,506.9,618.1,498.2z
			"/>
		<path class="st1" d="M656.3,502.5c2.9,1.5,5.4,1.9,7.9,0.4c2.7-1.6,2.8-3.8,1.6-5.8c-1.4-2.3-4.1-2.1-7.2-1.7
			c-4.1,0.4-8.6,1.1-11.6-3.9c-2.6-4.2-1.5-8.4,3.2-11.3c3.4-2.1,7.1-1.9,10-0.1l-1.6,3.9c-2.2-1.2-3.9-1.7-6.4-0.3
			c-2.7,1.6-3,3.7-1.9,5.5c1.5,2.4,4.2,2.3,7.3,2c4.1-0.4,8.8-1.1,11.7,3.6c2.5,4.1,1.9,8.5-3.3,11.6c-3.7,2.3-7.8,2.1-11.4,0.2
			L656.3,502.5z"/>
	</g>
</g>
<g id="Nom">
	<g>
		<path class="st1" d="M15.6,234.2c7.2-0.4,20.2-0.6,33.3-0.6c15.3,0,21.2,4.4,21.2,13.4c0,5.2-3.9,8.2-8.6,10.5
			c10.4,1.6,14.1,6.5,14.1,13.5c0,10.1-8.8,16.1-23,16.1c-5,0-9.8-0.2-18.2-0.2c-4.6,0-10.7,0.1-18.7,0.2
			C16.3,276.9,15.9,248.1,15.6,234.2z M26,242.2c-0.1,5-0.2,10.2-0.2,15.3c8.6-0.5,20.1-0.5,27.2-0.5c5.6,0,7.1-3.3,7.1-6.4
			c0-6.7-4.6-8.5-15.2-8.5C37,242,34.4,242,26,242.2z M64.7,271.4c0-5.7-2-8-11.6-8c-15.4,0-21.6,0.1-27.3,0.2
			c0,5.3,0,10.4,0.2,14.9c11.1,0.7,17.4,0.8,24.1,0.8C61.9,279.3,64.7,276.1,64.7,271.4z"/>
		<path class="st1" d="M127.6,265.9c0.1,7.1,0.2,14.1,0.3,21.2h-10.7c0.2-8.8,0.2-17.6,0.2-26.4c0-8.8,0-17.7-0.2-26.4h0.1
			c7.7-0.4,20.6-0.7,29.2-0.7c19.3,0,27.7,5.5,27.8,16.9c0,7.6-5.4,12.8-16.5,14.8c5.5,4.5,14.7,13.2,24.9,20.4v1.5h-14.9
			c-4.9-4.7-11.5-11.7-22-20.9h-0.5C141.5,266.2,132.9,266.1,127.6,265.9z M163.5,250.9c0.1-7.6-7.4-9.1-17.8-9.1
			c-8.5,0.1-14,0.2-18,0.4c-0.1,5.1-0.2,10.3-0.2,15.3c4.7,0.4,11,0.8,19.3,0.8C157.4,258.2,163.5,256.8,163.5,250.9z"/>
		<path class="st1" d="M249.2,234.2c10.3,18.5,20.8,35.8,31.5,52.9h-13.3c-2.3-4.7-4.6-9.2-6.9-13.7c-4.4-0.2-11-0.3-17.8-0.3
			c-7,0-14.1,0.2-18.6,0.5c-2.6,4.8-4.9,9.4-7,13.5h-12.8c11.2-17.1,22.1-34.8,33-52.9H249.2z M256.4,265.7c-4.4-8.2-9-16.2-14-24.4
			c-5,8.5-9.7,16.7-14,24.3c5.1,0.2,10.1,0.2,15.1,0.2C247.8,265.8,252.1,265.7,256.4,265.7z"/>
		<path class="st1" d="M311.7,271.3c6.4,4.5,15.6,7.9,31.2,7.9c12.9,0,17.5-2.5,17.5-7.3c0-3.7-2.1-7-23.9-7.6
			c-20.3-0.7-27.8-5.7-27.8-15.6c0-10.6,11-15.6,29.5-15.6c15.4,0,24,2.7,31.3,7.6l-5.9,8.5c-4.7-3.9-13.5-7.3-26.4-7.3
			c-14.1,0-18.5,2.3-18.5,7c0,4.2,3.7,6.6,22.8,7.3c22.1,0.9,29.1,6.3,29.1,15.9c0,9.9-8.3,16-30.3,16c-16.9,0-27.4-3.6-34.2-8.8
			L311.7,271.3z"/>
		<path class="st1" d="M410.6,271.3c6.4,4.5,15.6,7.9,31.2,7.9c12.9,0,17.5-2.5,17.5-7.3c0-3.7-2.1-7-23.9-7.6
			c-20.3-0.7-27.8-5.7-27.8-15.6c0-10.6,11-15.6,29.5-15.6c15.4,0,24,2.7,31.3,7.6l-5.9,8.5c-4.7-3.9-13.5-7.3-26.4-7.3
			c-14.1,0-18.5,2.3-18.5,7c0,4.2,3.7,6.6,22.8,7.3c22.1,0.9,29.1,6.3,29.1,15.9c0,9.9-8.3,16-30.3,16c-16.9,0-27.4-3.6-34.2-8.8
			L410.6,271.3z"/>
		<path class="st1" d="M509.3,234.2H567v9.3c-18.5-0.9-32-1.3-47.2-1.1c-0.1,4.6-0.1,9.1-0.2,13.8h38.1v8.8
			c-17.4-0.8-31.1-1.7-38.1-1.7c0,5.1,0.1,10.4,0.2,15.5c16.1-0.1,31.3-0.5,49-1.1v9.4h-59.5C509.6,269.5,509.6,251.8,509.3,234.2z"
			/>
		<path class="st1" d="M620.3,265.9c0.1,7.1,0.2,14.1,0.3,21.2h-10.7c0.2-8.8,0.2-17.6,0.2-26.4c0-8.8,0-17.7-0.2-26.4h0.1
			c7.7-0.4,20.6-0.7,29.2-0.7c19.3,0,27.7,5.5,27.8,16.9c0,7.6-5.4,12.8-16.5,14.8c5.5,4.5,14.7,13.2,24.9,20.4v1.5h-14.9
			c-4.9-4.7-11.5-11.7-22-20.9h-0.5C634.3,266.2,625.6,266.1,620.3,265.9z M656.2,250.9c0.1-7.6-7.4-9.1-17.8-9.1
			c-8.5,0.1-14,0.2-18,0.4c-0.1,5.1-0.2,10.3-0.2,15.3c4.7,0.4,11,0.8,19.3,0.8C650.1,258.2,656.2,256.8,656.2,250.9z"/>
		<path class="st1" d="M712.2,287.1c0.2-8.8,0.2-17.6,0.2-26.4c0-8.8,0-17.7-0.2-26.4h10.7c-0.2,8.8-0.3,17.6-0.3,26.4
			c0,8.8,0.2,17.6,0.3,26.4H712.2z"/>
		<path class="st1" d="M768.2,234.2h57.7v9.3c-18.5-0.9-32-1.3-47.2-1.1c-0.1,4.6-0.1,9.1-0.2,13.8h38.1v8.8
			c-17.4-0.8-31.1-1.7-38.1-1.7c0,5.1,0.1,10.4,0.2,15.5c16.1-0.1,31.3-0.5,49-1.1v9.4h-59.5C768.5,269.5,768.5,251.8,768.2,234.2z"
			/>
		<path class="st1" d="M144.6,377.8c-4.6,0-10.3-0.1-18.1-0.1c-5.3,0-11.4-0.1-18.8,0.1c0.6-10.2,0.2-39,0-52.9
			c7.2-0.4,20.2-0.6,33.3-0.6c23,0,32.3,8.1,32.3,25.7C173.2,366.9,162.7,377.8,144.6,377.8z M136.9,333.1c-7.9,0-10.5,0-18.9,0.2
			c-0.2,12.1-0.4,25.2-0.1,35.4c11.1,0.7,17.4,0.8,24.1,0.8c16.2,0,20.1-7.6,20.1-19C162.1,336.9,154.7,333.1,136.9,333.1z"/>
		<path class="st1" d="M223.4,324.9c-0.4,7.1-0.3,16-0.3,23.6c0,15.6,5.4,21.3,20.6,21.3c14,0,20.5-3.6,20.5-22.2
			c0-8.8-0.2-15.1-0.2-22.7h10.6c-0.2,4.5-0.2,12.9-0.2,26.7c0,15.7-9.4,27.1-31.4,27.1c-19.5,0-30.2-9-30.2-26.4
			c0-12.5,0.2-19.2-0.1-27.3H223.4z"/>
		<path class="st1" d="M383.9,357.3c0.1,6.8,0.2,13.6,0.3,20.5h-10.7c0.2-8.8,0.2-17.6,0.2-26.4c0-8.8,0-17.7-0.2-26.4
			c8.3-0.4,22.2-0.7,31.5-0.7c17.8,0,25.5,5.6,25.5,17.1c0,10.4-8.1,16.5-24.9,16.5C400.9,357.8,390.2,357.6,383.9,357.3z
			 M419.7,341.8c0-7.7-6.4-9.4-15.5-9.4c-9.6,0.1-15.7,0.2-20.2,0.4c-0.1,5.4-0.2,10.7-0.2,16.1c5.2,0.5,12.2,0.8,21.5,0.8
			C414.5,349.6,419.7,348.1,419.7,341.8z"/>
		<path class="st1" d="M502.3,324.9c10.3,18.5,20.8,35.8,31.5,52.9h-13.3c-2.3-4.7-4.6-9.2-6.9-13.7c-4.4-0.2-11-0.3-17.8-0.3
			c-7,0-14.1,0.2-18.6,0.5c-2.6,4.8-4.9,9.4-7,13.5h-12.8c11.2-17.1,22.1-34.8,33-52.9H502.3z M509.5,356.4c-4.4-8.2-9-16.2-14-24.4
			c-5,8.5-9.7,16.7-14,24.3c5.1,0.2,10.1,0.2,15.1,0.2C500.8,356.5,505.1,356.4,509.5,356.4z"/>
		<path class="st1" d="M592,378.9c-23,0-36.3-10.2-36.3-27.9c0-15.8,12.4-27.2,36.8-27.2c23.5,0,37,10.1,37,27.1
			C629.5,367.5,616.9,378.9,592,378.9z M592.5,333c-17.2,0-26,6.8-26,18.1c0,12.5,9.3,18.6,25.7,18.6c17.6,0,26.4-6.8,26.4-18.7
			C618.7,339,609.1,333,592.5,333z"/>
		<path class="st1" d="M666.2,377.8c0.3-10.1,0.2-40.2,0-52.9h15.3c11.8,13.1,28.2,28.9,40.6,41.6c-0.2-12.2-1.1-30.5-1.7-41.6h11.1
			c-0.4,13.7-0.9,41.3-0.9,52.9h-11.8c-13.1-12.5-29.3-30.5-43.1-44c0.5,12.2,0.9,30.5,2,44H666.2z"/>
	</g>
</g>
<g id="Plume_et_ombre">
	<g>
		<g>
			<path class="st2" d="M367.4,100.2c-0.3,0.1-0.5,0.3-0.8,0.4l-0.2,0.1c40.6,13.7,99.3,38.8,159.7,83c0.2,0,0.4,0,0.6,0.1
				c0-0.2,0-0.4,0-0.5C466.6,139.1,408.1,113.9,367.4,100.2L367.4,100.2z"/>
			<path class="st3" d="M369.7,99l-0.2,0.1c-0.3,0.1-0.5,0.2-0.8,0.4c40.4,13.7,98.4,38.7,158.2,82.3c0-0.3,0-0.6,0-1
				C467.6,137.6,410.1,112.8,369.7,99L369.7,99z"/>
			<path class="st3" d="M372.2,97.9c-0.4,0.1-0.7,0.3-1.1,0.5c40.1,13.7,97.1,38.3,155.8,81c0-0.3,0-0.6,0-1
				C468.7,136.2,412.2,111.7,372.2,97.9L372.2,97.9z"/>
			<path class="st3" d="M374.8,96.9l-1.1,0.4c39.7,13.6,95.6,38,153.2,79.6c0-0.3,0-0.7,0-1C469.8,134.8,414.4,110.6,374.8,96.9
				L374.8,96.9z"/>
			<path class="st3" d="M377.6,96c-0.4,0.1-0.8,0.3-1.3,0.4c39.3,13.6,93.9,37.5,150.4,78.1c0-0.3,0-0.7-0.1-1
				C470.8,133.4,416.8,109.6,377.6,96L377.6,96z"/>
			<path class="st3" d="M380.5,95c-0.4,0.1-0.8,0.3-1.3,0.4c38.8,13.5,92.1,37,147.4,76.4c0-0.4-0.1-0.7-0.1-1.1
				C471.8,132,419.1,108.6,380.5,95L380.5,95z"/>
			<path class="st3" d="M383.6,94.2l-1.4,0.4c38.2,13.5,90.2,36.5,144,74.6c0-0.4-0.1-0.7-0.2-1.1
				C472.9,130.6,421.7,107.7,383.6,94.2L383.6,94.2z"/>
			<path class="st3" d="M386.9,93.4l-1.5,0.3c37.7,13.4,88,36,140.4,72.7c-0.1-0.4-0.1-0.7-0.2-1.1
				C474,129.2,424.3,106.8,386.9,93.4L386.9,93.4z"/>
			<path class="st3" d="M390.3,92.7c-0.5,0.1-1,0.2-1.5,0.3c36.9,13.3,85.7,35.4,136.4,70.6c-0.1-0.4-0.2-0.8-0.3-1.1
				C475,127.8,427,106,390.3,92.7L390.3,92.7z"/>
			<path class="st3" d="M393.9,92.1c-0.5,0.1-1,0.2-1.6,0.3c36.2,13.2,83.2,34.6,132.2,68.4c-0.1-0.4-0.2-0.8-0.3-1.2
				C476,126.4,429.8,105.3,393.9,92.1L393.9,92.1z"/>
			<path class="st3" d="M397.8,91.5c-0.5,0.1-1.1,0.1-1.6,0.2c35.2,13.1,80.4,33.8,127.5,65.9c-0.2-0.4-0.3-0.8-0.5-1.3
				C477,125,432.7,104.6,397.8,91.5L397.8,91.5z"/>
			<path class="st3" d="M402,91.1c-0.6,0-1.2,0.1-1.8,0.2c34.2,12.9,77.3,32.9,122.3,63.2c-0.1-0.4-0.3-0.9-0.5-1.3
				C477.9,123.6,435.8,104,402,91.1L402,91.1z"/>
			<path class="st3" d="M406.4,90.9c-0.6,0-1.3,0.1-1.9,0.1c33,12.6,73.9,31.8,116.6,60.3c-0.2-0.5-0.4-0.9-0.6-1.4
				C478.8,122.2,438.9,103.4,406.4,90.9L406.4,90.9z"/>
			<path class="st3" d="M411.2,90.7c-0.7,0-1.4,0-2.1,0c31.6,12.3,70,30.6,110.2,57c-0.1-0.3-0.3-0.5-0.4-0.7
				c-0.1-0.3-0.3-0.5-0.4-0.8C479.6,120.8,442.2,103,411.2,90.7L411.2,90.7z"/>
			<path class="st3" d="M414.2,90.7c30,11.9,65.7,29.1,103.1,53.3c-0.3-0.5-0.6-1-0.9-1.5c-36.2-23.3-70.7-40-100-51.7
				c-0.3,0-0.7,0-1,0C415,90.8,414.6,90.7,414.2,90.7L414.2,90.7z"/>
			<path class="st3" d="M419.6,90.9c28.1,11.4,60.9,27.3,95.2,49.1c-0.4-0.6-0.8-1.1-1.2-1.7c-33-20.8-64.5-36.2-91.7-47.3
				C421.2,91,420.4,90.9,419.6,90.9L419.6,90.9z"/>
			<path class="st3" d="M425.7,91.4c25.7,10.7,55.1,25.1,85.9,44.3c-0.5-0.6-1-1.2-1.5-1.8c-29.2-18-57.1-31.8-81.7-42.2L425.7,91.4
				L425.7,91.4z"/>
			<path class="st3" d="M432.4,92.2c22.9,9.8,48.4,22.5,75.1,38.7c-0.6-0.7-1.3-1.4-2-2.1c-24.7-14.9-48.5-26.8-69.9-36.1
				C434.5,92.6,433.5,92.4,432.4,92.2L432.4,92.2z"/>
			<path class="st3" d="M440.1,93.5c19.2,8.5,40.2,19,62,31.9c-1-0.9-2-1.8-3-2.6c-19.3-11.2-37.9-20.6-55.1-28.4l-1.5-0.4
				C441.8,93.8,441,93.7,440.1,93.5L440.1,93.5z"/>
			<path class="st3" d="M449.6,95.7c13.9,6.4,28.7,13.9,44,22.5c-0.5-0.4-1.1-0.8-1.7-1.3c-1.3-0.9-2.5-1.8-3.8-2.7
				c-11.3-6.2-22.3-11.8-32.9-16.8c-0.9-0.3-1.8-0.6-2.7-1c-0.6-0.2-1-0.4-1.6-0.5L449.6,95.7L449.6,95.7z"/>
			<path class="st3" d="M364.9,101.6l-0.3,0.2l-0.3,0.1l0,0l-0.2,0.2C404.1,115.5,462,140,522,183.2c0.5,0.1,1.1,0.1,1.6,0.2
				C463.4,139.8,405.1,115,364.9,101.6L364.9,101.6z"/>
			<path class="st3" d="M363.2,103.2l-0.5,0.6c39.2,13,96,36.9,155.1,78.8c0.5,0.1,1.1,0.1,1.6,0.2
				C459.9,140.5,402.7,116.4,363.2,103.2L363.2,103.2z"/>
			<path class="st3" d="M361.7,105c-0.2,0.2-0.3,0.4-0.5,0.7c38.4,12.7,94,35.9,152.1,76.5c0.5,0.1,1.1,0.1,1.6,0.2
				C456.5,141.3,400.5,117.8,361.7,105L361.7,105z"/>
			<path class="st3" d="M360.4,106.8c-0.2,0.2-0.3,0.4-0.5,0.7c37.6,12.4,91.9,34.9,149,74.1c0.6,0.1,1.1,0.1,1.7,0.2
				C453.1,142.1,398.3,119.3,360.4,106.8L360.4,106.8z"/>
			<path class="st3" d="M359.1,108.6c-0.2,0.2-0.3,0.5-0.4,0.7c36.8,12.1,89.7,33.9,145.6,71.7c0.6,0.1,1.2,0.2,1.7,0.2
				C449.7,142.9,396.3,120.8,359.1,108.6L359.1,108.6z"/>
			<path class="st3" d="M358,110.5c-0.1,0.2-0.3,0.5-0.4,0.7c35.9,11.8,87.4,32.9,142,69.2c0.6,0.1,1.2,0.2,1.8,0.2
				C446.3,143.8,394.3,122.4,358,110.5L358,110.5z"/>
			<path class="st3" d="M357,112.4c-0.1,0.2-0.2,0.5-0.3,0.7c35,11.5,84.9,31.8,138.1,66.5c0.6,0.1,1.2,0.2,1.8,0.3
				C442.9,144.6,392.4,124,357,112.4L357,112.4z"/>
			<path class="st3" d="M356.1,114.3c-0.1,0.2-0.2,0.5-0.3,0.7c34.1,11.1,82.3,30.7,133.9,63.8c0.6,0.1,1.3,0.2,1.9,0.3
				C439.4,145.5,390.6,125.6,356.1,114.3L356.1,114.3z"/>
			<path class="st3" d="M355.4,116.3c-0.1,0.3-0.2,0.5-0.2,0.8c33.1,10.8,79.5,29.6,129.4,61c0.7,0.1,1.3,0.2,2,0.3
				C436,146.4,388.9,127.3,355.4,116.3L355.4,116.3z"/>
			<path class="st3" d="M354.8,118.4c-0.1,0.2-0.1,0.5-0.2,0.8c32.1,10.5,76.5,28.5,124.5,58c0.7,0.1,1.4,0.2,2.1,0.3
				C432.5,147.3,387.3,129.1,354.8,118.4L354.8,118.4z"/>
			<path class="st3" d="M354.4,120.5c0,0.3-0.1,0.5-0.1,0.8c31,10.2,73.3,27.3,119.2,54.9c0.7,0.1,1.4,0.3,2.1,0.4
				C429,148.2,385.9,130.8,354.4,120.5L354.4,120.5z"/>
			<path class="st3" d="M354.3,122.7c0,0.3,0,0.5,0,0.8c29.8,9.8,69.9,26,113.4,51.7c0.7,0.1,1.5,0.3,2.2,0.4
				C425.5,149.2,384.5,132.7,354.3,122.7L354.3,122.7z"/>
			<path class="st3" d="M354.4,125c0,0.3,0.1,0.6,0.1,0.9c28.4,9.5,66.1,24.6,107.1,48.3c0.8,0.2,1.5,0.3,2.3,0.4
				C422,150.1,383.4,134.6,354.4,125L354.4,125z"/>
			<path class="st3" d="M354.8,127.4c0.1,0.3,0.2,0.6,0.3,0.9c27,9.1,62,23.2,100.2,44.7c0.8,0.2,1.6,0.3,2.4,0.5
				C418.4,151.1,382.4,136.6,354.8,127.4L354.8,127.4z"/>
			<path class="st3" d="M355.7,129.9c0.1,0.3,0.2,0.7,0.4,1c25.3,8.6,57.3,21.5,92.4,40.7c0.9,0.2,1.8,0.4,2.6,0.5
				C414.8,152.1,381.6,138.7,355.7,129.9L355.7,129.9z"/>
			<path class="st3" d="M356.9,132.6c0.2,0.3,0.4,0.7,0.6,1.1c23.3,8,52.1,19.7,83.5,36.4c0.9,0.2,1.8,0.4,2.8,0.6
				C411.1,153,381,140.8,356.9,132.6L356.9,132.6z"/>
			<path class="st3" d="M358.9,135.5c0.3,0.4,0.6,0.8,1,1.2c20.9,7.3,45.8,17.5,73,31.4c1,0.3,2.1,0.5,3.1,0.7
				C407.2,153.8,380.7,143.1,358.9,135.5L358.9,135.5z"/>
			<path class="st3" d="M361.8,138.7c0.5,0.5,0.9,0.9,1.4,1.3c17.7,6.4,38.2,14.8,60.4,25.7c1.2,0.3,2.4,0.6,3.6,0.9
				C403,154.6,380.8,145.5,361.8,138.7L361.8,138.7z"/>
			<path class="st3" d="M366.2,142.6c0.5,0.4,1,0.7,1.5,1.1c0.3,0.2,0.5,0.4,0.8,0.5c13.3,5,28,11,43.6,18.3
				c1.5,0.5,3.1,0.9,4.7,1.4C398.4,155.2,381.4,148.2,366.2,142.6L366.2,142.6z"/>
			<path class="st3" d="M374.4,148c1.6,0.9,3.2,1.8,4.9,2.6c0.8,0.4,1.6,0.8,2.4,1.1c3.3,1.3,6.8,2.8,10.3,4.2l0.1,0
				c2.1,0.9,4.3,1.5,6.4,2.3c1.1,0.4,2.3,0.8,3.4,1.2C392.3,155.2,383.1,151.4,374.4,148L374.4,148z"/>
			<path class="st1" d="M475.4,134c-1.3-16.8-27.2-33.5-57.7-37.3c-30.5-3.8-54.2,6.9-52.9,23.7c1.3,16.8,27.2,33.5,57.7,37.3
				C453,161.5,476.7,150.9,475.4,134z M426.1,156.2c-27.5-3.4-50.8-18.6-52-34c-1.2-15.4,20.2-25.2,47.8-21.9s50.8,18.6,52,34
				C475.1,149.7,453.7,159.5,426.1,156.2z"/>
			<path class="st2" d="M426.8,151.7c-24.3-3.1-45-16.1-46.2-29c-0.1-1.6,0-3.1,0.5-4.5c2.6-4.9,23.4-3.7,39,3.2
				c-14.6-7.3-23-15.3-19.5-16.2h0c0.9-0.2,1.8-0.3,2.7-0.5c5.7-0.8,12.3-0.8,19.2,0c24.3,3.1,45,16.1,46.2,29
				C469.9,146.7,451.1,154.7,426.8,151.7z"/>
			<path class="st1" d="M518,176.2c-1.2-0.9-2.4-1.8-3.6-2.7c-2.8-2.1-5.7-4.3-8.7-6.2c-2-1.4-4-2.7-6-4.1
				c-6.2-4.2-12.7-8.6-19.2-12.5c-1.5-0.9-3-1.9-4.5-2.8c-2.7-1.7-5.5-3.5-8.4-5.1l-13.1-7.5c-3.5-2-7.1-3.9-10.6-5.8l-12.8-6.7
				l-17.1-8.2c-3-1.3-6-2.6-9-4c-1.6-0.7-3.3-1.4-4.9-2.2c-3.1-1.4-6.3-2.7-9.4-3.9c-1.6-0.6-3.1-1.2-4.7-1.9
				c-4.3-1.8-8.8-3.4-13.1-5l-1.1-0.4c-4.8-1.8-9.7-3.5-14.4-5c-3.4-1.2-7-2.3-10.4-3.3c-1.4-0.4-2.8-0.8-4.1-1.3
				c-9.2-2.7-19.1-5.5-29.8-7.6l-0.8-0.2l-1.8,10.8l0.8,0.1c10.4,1.7,20.9,4.2,28.9,6.2c1.4,0.4,2.8,0.8,4.2,1.1
				c3.4,0.9,6.9,1.8,10.3,2.9c4.7,1.4,9.5,2.8,14.2,4.4l1.1,0.4c4.3,1.4,8.8,2.8,13.1,4.4c1.6,0.6,3.1,1.1,4.7,1.7
				c3.1,1.1,6.3,2.2,9.4,3.5l14,5.5l17.2,7.4l13,6.1c3.5,1.7,7.2,3.4,10.7,5.3l13.4,6.9c2.8,1.5,5.7,3.1,8.5,4.7
				c1.5,0.9,3.1,1.8,4.7,2.6c6.7,3.6,13.2,7.7,19.5,11.7c2.1,1.3,4.2,2.6,6.3,3.9c3,1.8,5.9,3.8,8.8,5.8c1.3,0.9,2.5,1.7,3.8,2.5
				l12.5,8.5l0.9-1.3L518,176.2z M479.2,152.8c-1.5-0.9-3.1-1.8-4.6-2.6c-2.8-1.6-5.6-3.2-8.5-4.7l-13.3-6.9
				c-3.5-1.9-7.2-3.6-10.8-5.3l-13-6.1l-17.3-7.4l-14-5.5c-3.1-1.3-6.3-2.4-9.4-3.5c-1.6-0.6-3.1-1.1-4.7-1.7
				c-4.3-1.6-8.8-3-13.1-4.4l-1.1-0.4c-4.7-1.6-9.6-3-14.3-4.4c-3.4-1.1-6.9-2-10.3-2.9c-1.4-0.4-2.8-0.7-4.2-1.1
				c-7.8-2-18.1-4.4-28.3-6.1l1.2-7.7c10.3,2.1,19.9,4.8,28.8,7.4c1.4,0.4,2.8,0.8,4.1,1.3c3.4,1,6.9,2.1,10.3,3.3
				c4.7,1.6,9.6,3.2,14.3,5l1.1,0.4c4.3,1.6,8.7,3.2,13,5c1.5,0.6,3.1,1.3,4.7,1.9c3.1,1.2,6.3,2.5,9.3,3.9c1.6,0.7,3.3,1.4,4.9,2.2
				c3,1.3,6,2.6,8.9,3.9l17.1,8.2L443,131c3.5,1.8,7.1,3.7,10.6,5.7l13.1,7.5c2.8,1.6,5.6,3.4,8.3,5.1c1.5,0.9,3,1.9,4.6,2.8
				c5.8,3.4,11.4,7.2,16.9,10.9C490.9,159.5,485.1,156,479.2,152.8z"/>
			<path class="st4" d="M496.5,163.1c-5.6-3.5-11.4-7.1-17.3-10.3c-1.5-0.9-3.1-1.8-4.6-2.6c-2.8-1.6-5.6-3.2-8.5-4.7l-13.3-6.9
				c-3.5-1.9-7.2-3.6-10.8-5.3l-13-6.1l-17.3-7.4l-14-5.5c-3.1-1.3-6.3-2.4-9.4-3.5c-1.6-0.6-3.1-1.1-4.7-1.7
				c-4.3-1.6-8.8-3-13.1-4.4l-1.1-0.4c-4.7-1.6-9.6-3-14.3-4.4c-3.4-1.1-6.9-2-10.3-2.9c-1.4-0.4-2.8-0.7-4.2-1.1
				c-7.8-2-18.1-4.4-28.3-6.1l1.2-7.7c10.3,2.1,19.9,4.8,28.8,7.4c1.4,0.4,2.8,0.8,4.1,1.3c3.4,1,6.9,2.1,10.3,3.3
				c4.7,1.6,9.6,3.2,14.3,5l1.1,0.4c4.3,1.6,8.7,3.2,13,5c1.5,0.6,3.1,1.3,4.7,1.9c3.1,1.2,6.3,2.5,9.3,3.9c1.6,0.7,3.3,1.4,4.9,2.2
				c3,1.3,6,2.6,8.9,3.9l17.1,8.2L443,131c3.5,1.8,7.1,3.7,10.6,5.7l13.1,7.5c2.8,1.6,5.6,3.4,8.3,5.1c1.5,0.9,3,1.9,4.6,2.8
				C485.4,155.5,491,159.3,496.5,163.1z"/>
			<path class="st2" d="M496.5,163.1c-5.6-3.5-11.4-7.1-17.3-10.3c-1.5-0.9-3.1-1.8-4.6-2.6c-2.8-1.6-5.6-3.2-8.5-4.7l-13.3-6.9
				c-3.5-1.9-7.2-3.6-10.8-5.3l-13-6.1l-17.3-7.4l-14-5.5c-3.1-1.3-6.3-2.4-9.4-3.5c-1.6-0.6-3.1-1.1-4.7-1.7
				c-4.3-1.6-8.8-3.1-13.1-4.4l-1.1-0.4c-0.9-0.3-1.8-0.6-2.7-0.9c-0.9-0.3-1.8-0.6-2.7-0.9c-2.7-0.8-5.4-1.6-8.1-2.4
				c-0.3-0.1-0.6-0.2-0.9-0.3c-3.4-1.1-6.9-2-10.3-2.9c-1.4-0.4-2.8-0.7-4.2-1.1c-7.8-2-18.1-4.4-28.3-6.1l1.2-7.7
				c10.3,2.1,19.9,4.8,28.8,7.4c1.4,0.4,2.8,0.8,4.1,1.3c3.4,1,6.9,2.1,10.3,3.3c1.2,0.4,2.5,0.8,3.8,1.3c3.3,1.1,6.7,2.3,10,3.5
				c0.2,0.1,0.4,0.1,0.6,0.2l1.1,0.4c4.3,1.6,8.7,3.2,13,5c1.5,0.6,3.1,1.3,4.7,1.9c3.1,1.2,6.3,2.5,9.3,3.9
				c1.6,0.7,3.3,1.4,4.9,2.2c3,1.3,6,2.6,8.9,3.9l17.1,8.2L443,131c3.5,1.8,7.1,3.7,10.6,5.7l13.1,7.5c2.8,1.6,5.6,3.4,8.3,5.1
				c1.5,0.9,3,1.9,4.6,2.8C485.4,155.5,491,159.3,496.5,163.1z"/>
		</g>
		<path class="st1" d="M528.2,158.3c-2.9-9.1-7.5-17.6-13.4-25.1c-2.9-3.7-6.2-7.2-9.6-10.5c-3.5-3.2-7.1-6.3-10.9-9.1
			c-7.6-5.6-15.7-10.5-24.2-14.6c-4.2-2.1-8.5-3.9-12.9-5.6c-1.1-0.4-2.2-0.8-3.3-1.2c-0.5-0.2-1.2-0.4-1.8-0.6l-1.7-0.4l-6.8-1.8
			c-9.2-2.1-18.4-3.9-27.9-4.5c-9.4-0.7-19-0.5-28.5,1l-3.6,0.6l-3.5,0.8c-2.4,0.5-4.7,1.3-7,2l-3.4,1.3c-1.1,0.4-2.3,1-3.4,1.4
			c-1.1,0.5-2.2,1.1-3.3,1.6l-0.6,0.4c-1.7-0.6-3.4-1.1-5-1.7c-3.4-1.2-7-2.3-10.4-3.3c-1.4-0.4-2.7-0.8-4.1-1.3
			c-9.2-2.7-19.1-5.5-29.8-7.6l-0.8-0.2l-1.8,10.8l0.8,0.1c10.4,1.7,20.9,4.2,28.9,6.2c1.4,0.4,2.8,0.8,4.2,1.1
			c3.4,0.9,6.9,1.8,10.3,2.9c0.1,0,0.2,0,0.3,0.1c-0.2,0.3-0.4,0.6-0.6,0.9c-1.5,2.1-2.8,4.2-4,6.6c-2.3,4.6-3.8,10-3.5,15.5
			c0.1,2.8,0.8,5.5,1.7,8c0.4,1.3,1.1,2.5,1.7,3.7c0.7,1.1,1.3,2.3,2.2,3.3c3.1,4.3,7,7.7,11,10.6c4.1,2.9,8.4,5.3,12.7,7.4
			c4.4,2.1,8.9,3.8,13.3,5.6c2.2,0.9,4.5,1.6,6.8,2.4c2.3,0.7,4.5,1.6,6.8,2.2l6.9,2c2.3,0.7,4.6,1.3,6.9,1.8
			c18.4,4.7,37,8.2,55.7,11.1c9.4,1.4,18.7,2.6,28.1,3.7c9.4,1.1,18.8,2,28.2,2.7l2.3,0.2l0.2-2.3
			C532,177.1,531.1,167.4,528.2,158.3z M344.7,96.8c-1.4-0.4-2.8-0.7-4.2-1.1c-7.8-2-18.1-4.4-28.3-6.1l1.2-7.7
			c10.3,2.1,19.9,4.8,28.8,7.4c1.4,0.4,2.8,0.8,4.1,1.3c3.4,1,6.9,2.1,10.3,3.3c1.2,0.4,2.5,0.8,3.8,1.3c3.3,1.1,6.7,2.3,10,3.5
			c0.2,0.1,0.4,0.1,0.6,0.2l1.1,0.4c4.3,1.6,8.7,3.2,13,5c1.5,0.6,3.1,1.3,4.7,1.9c3.1,1.2,6.3,2.5,9.3,3.9c1.6,0.7,3.3,1.4,4.9,2.2
			c3,1.3,6,2.6,8.9,3.9l17.1,8.2L443,131c3.5,1.8,7.1,3.7,10.6,5.7l13.1,7.5c2.8,1.6,5.6,3.4,8.3,5.1c1.5,0.9,3,1.9,4.6,2.8
			c5.8,3.4,11.4,7.2,16.9,10.9c-5.6-3.5-11.4-7.1-17.3-10.3c-1.5-0.9-3.1-1.8-4.6-2.6c-2.8-1.6-5.6-3.2-8.5-4.7l-13.3-6.9
			c-3.5-1.9-7.2-3.6-10.8-5.3l-13-6.1l-17.3-7.4l-14-5.5c-3.1-1.3-6.3-2.4-9.4-3.5c-1.6-0.6-3.1-1.1-4.7-1.7
			c-4.3-1.6-8.8-3.1-13.1-4.4l-1.1-0.4c-0.9-0.3-1.8-0.6-2.7-0.9c-0.9-0.3-1.8-0.6-2.7-0.8l0,0c-2.7-0.8-5.4-1.6-8.1-2.4
			c-0.3-0.1-0.6-0.2-0.9-0.3C351.6,98.6,348,97.7,344.7,96.8z M473.4,176.2c-18.5-3.2-36.9-6.9-54.9-11.8c-2.3-0.6-4.5-1.2-6.7-1.9
			l-6.7-2c-2.2-0.7-4.4-1.5-6.6-2.2c-2.2-0.8-4.4-1.4-6.5-2.3c-4.3-1.8-8.6-3.4-12.7-5.4c-4.1-2-8-4.3-11.6-6.8
			c-3.6-2.6-6.8-5.5-9.3-8.9c-0.7-0.8-1.1-1.7-1.7-2.6c-0.4-0.9-0.9-1.8-1.2-2.7c-0.7-1.8-1.1-3.8-1.2-5.7
			c-0.2-3.9,0.9-7.9,2.8-11.7c0.9-1.9,2.1-3.7,3.4-5.5c0.6-0.9,1.3-1.7,2-2.6l0.4-0.4c2,0.6,4,1.3,6,1.9l1.1,0.4
			c4.3,1.4,8.8,2.8,13.1,4.4c1.6,0.6,3.1,1.1,4.7,1.7c3.1,1.1,6.3,2.2,9.4,3.5l14,5.5l17.2,7.4l13,6.1c3.5,1.7,7.2,3.4,10.7,5.3
			l13.4,6.9c2.8,1.5,5.7,3.1,8.5,4.7c1.5,0.9,3.1,1.8,4.7,2.6c6.7,3.6,13.2,7.7,19.5,11.7c2.1,1.3,4.2,2.6,6.3,3.9
			c3,1.8,5.9,3.8,8.8,5.7c1.3,0.9,2.5,1.7,3.8,2.6l8.2,5.6C507.7,181.6,490.5,179.2,473.4,176.2z M526.9,182.8l-8.8-6.6
			c-1.2-0.9-2.4-1.8-3.6-2.7c-2.8-2.1-5.7-4.3-8.7-6.2c-2-1.4-4-2.7-6.1-4.1c-6.2-4.2-12.7-8.6-19.2-12.5c-1.5-0.9-3-1.9-4.5-2.8
			c-2.7-1.7-5.5-3.5-8.4-5.1l-13.1-7.5c-3.5-2-7.1-3.9-10.6-5.8l-12.8-6.7l-17.1-8.2c-3-1.3-6-2.6-9-4c-1.6-0.7-3.3-1.4-4.9-2.2
			c-3.1-1.4-6.3-2.7-9.4-3.9c-1.6-0.6-3.1-1.2-4.7-1.9c-4.3-1.8-8.8-3.4-13.1-5l-0.2-0.1l3-1.2c2.1-0.7,4.2-1.5,6.3-2l3.2-0.9
			l3.3-0.7c8.8-1.9,17.8-2.5,26.9-2.3c2.3,0.1,4.6,0.1,6.8,0.3l6.8,0.7c2.3,0.2,4.5,0.7,6.8,1c2.3,0.4,4.5,0.7,6.7,1.3l6.7,1.6
			l1.7,0.4c0.5,0.1,1,0.3,1.6,0.5c1.1,0.4,2.2,0.7,3.2,1.1c4.3,1.6,8.5,3.4,12.6,5.4c8.3,3.9,16.2,8.6,23.6,14
			c3.7,2.7,7.2,5.6,10.5,8.7c3.3,3.2,6.4,6.5,9.2,10.1c2.8,3.6,5.4,7.3,7.4,11.3c1.1,2,2,4,2.9,6.1c0.5,1,0.8,2.1,1.2,3.2
			c0.4,1.1,0.8,2.1,1.1,3.2C526.4,167,527.3,174.9,526.9,182.8z"/>
	</g>
	<g class="st5">
		<path class="st1" d="M531.1,484.2l0.4,1.3l-2.2-0.1c-9-0.2-18-0.5-27-1c-9-0.4-18-1-27-1.6c-18-1.3-36-3.1-54-5.6
			c-2.2-0.3-4.5-0.6-6.7-1l-6.7-1.1c-2.2-0.4-4.5-0.8-6.7-1.2c-2.2-0.4-4.5-0.8-6.7-1.3c-4.4-1-8.9-2-13.3-3.2
			c-4.4-1.3-8.7-2.7-12.9-4.4c-4.2-1.7-8.3-3.8-11.8-6.4c-0.9-0.6-1.7-1.4-2.5-2c-0.7-0.7-1.5-1.5-2.1-2.3c-1.3-1.6-2.3-3.2-2.9-4.9
			c-1.2-3.4-0.7-6.7,0.6-9.6c0.6-1.4,1.5-2.8,2.5-4.1c0.1-0.2,0.3-0.4,0.4-0.5c-0.1,0-0.2,0-0.2,0c-3.2-0.6-6.5-1.2-9.6-1.7
			c-1.3-0.2-2.6-0.4-3.9-0.7c-7.4-1.2-17.1-2.8-26.5-3.8l-0.7-0.1l0-6.8l0.7,0.1c9.6,1.3,18.8,3,27.3,4.7c1.3,0.3,2.6,0.5,3.9,0.8
			c3.2,0.6,6.5,1.3,9.7,2c1.6,0.3,3.1,0.7,4.7,1l0.5-0.2c0.9-0.3,1.8-0.7,2.7-1c0.9-0.3,1.8-0.6,2.7-0.9l2.8-0.8
			c1.9-0.4,3.8-0.9,5.8-1.2l2.9-0.5l3-0.4c8-0.9,16.4-1.1,24.8-0.7c8.4,0.4,17,1.4,25.5,2.7l6.4,1l1.6,0.3c0.6,0.1,1.1,0.2,1.7,0.3
			c1.1,0.2,2.1,0.5,3.2,0.7c4.3,1,8.5,2.1,12.7,3.3c8.5,2.4,16.8,5.2,24.9,8.5c4.1,1.6,8,3.4,12,5.3c3.9,1.9,7.7,3.9,11.3,6
			c7.2,4.3,13.7,9.2,18.7,14.4C525.9,473,529.3,478.6,531.1,484.2z"/>
	</g>
</g>
</svg>
